<svg width="20" height="20" viewBox="0 0 256 256" fill="none" xmlns="http://www.w3.org/2000/svg">
<path fill-rule="evenodd" clip-rule="evenodd" d="M95.8648 97.7082C100.878 91.8881 111.169 87.17 118.85 87.17H147.779C155.192 87.17 157.466 91.5647 153.109 97.1033L145.546 90.5991L143.406 90.1112C140.068 89.35 134.458 88.7443 124.886 88.1118C123.724 88.0348 122.622 87.973 122.436 87.9739C122.251 87.975 121.427 88.7628 120.606 89.7247L119.113 91.4735L121.267 92.521C122.452 93.0973 125.79 94.6071 128.686 95.8763C136.7 99.3882 138.074 100.095 138.495 100.922C138.866 101.652 139.187 104.669 139.205 107.599L139.214 109.178L141.265 110.88L137.654 115.072L137.438 114.887L127.269 126.678C121.676 133.163 108.067 148.937 97.0266 161.731C93.5082 165.809 90.1694 169.691 87.2435 173.105C81.7855 177.673 73.4145 181.053 66.9129 181.053H37.9845C30.303 181.053 28.1399 176.335 33.153 170.514L51.3785 149.355C52.4723 149.743 53.4677 150.031 53.8416 150.035C54.7112 150.044 55.1633 149.481 55.6333 147.806C55.9831 146.558 56.0351 146.204 56.0698 143.909L63.5709 135.2C63.6109 135.414 63.6743 135.532 63.7722 135.581C63.9747 135.684 64.325 135.494 64.9209 135.266C69.0312 133.691 72.0117 130.249 72.956 125.987C73.0669 125.487 73.1388 124.793 73.17 124.056L75.6561 121.17C75.7147 121.798 75.7335 122.483 75.7249 123.29C75.7047 125.175 75.6441 125.746 75.3495 126.83C74.592 129.615 73.323 131.871 71.4197 133.814C70.068 135.194 68.9197 136.037 67.2213 136.895L66.0262 137.499L66.03 140.387C66.0359 144.827 66.3185 147.506 66.9177 148.805C67.0499 149.091 67.3494 149.387 67.6615 149.539C68.1716 149.788 68.2132 149.785 69.4008 149.412C70.07 149.202 71.5486 148.572 72.6867 148.012C74.5544 147.094 74.7836 146.939 75.0411 146.426C75.3154 145.879 75.3169 145.833 75.0812 145.194C74.3584 143.234 74.2712 142.004 74.7492 140.513C75.4842 138.221 77.234 136.757 79.7159 136.359C80.7742 136.189 81.6861 136.289 83.1652 136.738C83.6896 136.897 83.8495 136.889 84.3004 136.68C84.7441 136.474 84.9273 136.227 85.4848 135.082C86.281 133.446 87.3346 130.411 87.3419 129.731C87.3474 129.217 86.7701 128.34 86.4243 128.336C86.3245 128.335 85.8517 128.133 85.3737 127.888C84.2566 127.315 83.1462 126.115 82.5642 124.851C82.1479 123.947 82.1117 123.747 82.1259 122.416C82.1402 121.083 82.1802 120.886 82.6193 119.984C83.208 118.774 84.4416 117.529 85.6932 116.881C86.3648 116.533 86.6607 116.28 86.8508 115.89C87.101 115.377 87.098 115.342 86.701 114.127C86.3719 113.12 85.6466 111.492 85.0295 110.288L95.8648 97.7082Z" fill="black"/>
<path fill-rule="evenodd" clip-rule="evenodd" d="M198.252 75C190.571 75 180.28 79.7181 175.266 85.5382L159.883 103.398L161.689 104.934L161.486 106.387C161.082 109.288 161.566 111.274 162.968 112.464C164.353 113.64 166.323 113.812 169.525 113.036L171.064 112.663L173.105 114.367C174.227 115.304 175.467 116.488 175.861 116.999C177.433 119.038 176.781 120.618 172.213 125.841C169.659 128.761 168.58 129.829 167.681 130.329C165.512 131.534 164.858 131.338 161.323 128.421L159.048 126.543L159.229 125.511C159.329 124.943 159.358 123.795 159.294 122.96C159.099 120.394 158.29 119.122 156.384 118.385C154.87 117.799 153.251 117.734 151.453 118.186L150.002 118.551L148.144 117.026L102.072 170.514C97.0589 176.335 99.2221 181.053 106.904 181.053H135.832C143.513 181.053 153.804 176.335 158.818 170.514L232.012 85.5382C237.025 79.7181 234.862 75 227.181 75H198.252Z" fill="black"/>
<path fill-rule="evenodd" clip-rule="evenodd" d="M39.1966 149.705C39.0359 149.892 38.8645 150.076 38.6832 150.257L21 104.831L28.6791 95.9162C31.1857 93.0062 36.3312 90.6471 40.1719 90.6471H83.1119C86.9526 90.6471 88.0342 93.0062 85.5276 95.9162L75.7183 107.305C74.0958 105.664 73.4566 103.167 74.2526 100.821C74.5174 100.04 74.5365 99.8384 74.3897 99.3719C74.2359 98.8833 74.0842 98.7606 72.857 98.1316C71.3002 97.3339 68.1607 96.2265 67.4339 96.2187C67.1295 96.2155 66.7874 96.3428 66.529 96.5556C66.3006 96.7437 65.9946 97.2137 65.8493 97.5999C65.4697 98.6087 64.6903 99.5793 63.67 100.314C60.5272 102.576 56.3096 101.462 54.5722 97.91C54.2169 97.1837 53.9864 96.9003 53.5964 96.71C53.1074 96.4716 53.0421 96.4743 52.0581 96.7761C50.8527 97.1457 47.9912 98.4382 46.9918 99.0646C46.0881 99.6309 45.8403 100.284 46.202 101.148C46.885 102.778 46.9928 104.267 46.5313 105.695C45.7693 108.055 44.0662 109.49 41.5508 109.894C40.4925 110.064 39.5807 109.964 38.1015 109.515C37.5771 109.356 37.4172 109.364 36.9663 109.574C36.5226 109.779 36.3394 110.026 35.7819 111.172C34.9857 112.807 33.9321 115.843 33.9248 116.523C33.9193 117.036 34.4967 117.914 34.8424 117.917C35.3201 117.922 36.8299 118.884 37.5053 119.614C40.3838 122.724 39.4636 127.505 35.6252 129.383C34.7259 129.823 34.4871 130.07 34.2829 130.773C34.0809 131.469 36.5555 137.142 37.2695 137.621C37.7383 137.935 38.6222 137.907 39.5934 137.547C40.771 137.109 42.7199 137.122 43.8529 137.574C45.3109 138.156 46.4271 139.235 47.0834 140.549L39.1966 149.705ZM51.568 135.342L53.1535 133.502C50.6352 131.622 48.8806 128.872 48.2562 125.737C47.9939 124.421 48.0214 121.848 48.3118 120.538C49.3988 115.631 53.3476 111.728 58.2598 110.705C59.4911 110.449 62.3085 110.474 63.5652 110.752C65.9683 111.285 68.1199 112.492 69.8124 114.161L71.535 112.161C70.1202 110.772 68.4622 109.652 66.7193 108.958C64.436 108.049 63.5955 107.884 61.0686 107.845C58.5249 107.806 57.2614 108.022 55.1419 108.859C51.5736 110.266 48.3911 113.329 46.8259 116.862C45.8481 119.068 45.5693 120.393 45.5418 122.963C45.5144 125.533 45.7647 126.864 46.6952 129.091C47.7134 131.528 49.4351 133.711 51.568 135.342ZM67.7835 116.517C67.4445 115.93 67.0257 115.382 66.5298 114.889C65.3794 113.745 64.3314 113.301 63.8628 113.76C63.7374 113.883 63.6778 114.78 63.6554 116.876L63.6239 119.82L62.4213 120.75C61.7597 121.262 61.1459 121.68 61.0573 121.679C60.8588 121.676 59.3357 120.605 58.7983 120.089L58.4034 119.71L58.4334 116.909C58.4613 114.302 58.4435 114.088 58.1764 113.815C57.7898 113.42 57.4859 113.442 56.717 113.92C55.1605 114.886 53.6899 117.048 53.3207 118.913C53.0776 120.14 53.2028 121.909 53.6152 123.071C54.2632 124.895 55.6939 126.542 57.3916 127.416L57.9817 127.72L57.9877 127.889L67.7835 116.517Z" fill="black"/>
</svg>
